<?xml version="1.0" encoding="UTF-8" standalone="no"?>
<svg
   xmlns:dc="http://purl.org/dc/elements/1.1/"
   xmlns:cc="http://creativecommons.org/ns#"
   xmlns:rdf="http://www.w3.org/1999/02/22-rdf-syntax-ns#"
   xmlns:svg="http://www.w3.org/2000/svg"
   xmlns="http://www.w3.org/2000/svg"
   xmlns:sodipodi="http://sodipodi.sourceforge.net/DTD/sodipodi-0.dtd"
   xmlns:inkscape="http://www.inkscape.org/namespaces/inkscape"
   width="48"
   height="48"
   viewBox="0 0 48 48"
   id="svg3386"
   version="1.1"
   inkscape:version="0.91 r13725"
   sodipodi:docname="icon.svg">
  <metadata
     id="metadata3396">
    <rdf:RDF>
      <cc:Work
         rdf:about="">
        <dc:format>image/svg+xml</dc:format>
        <dc:type
           rdf:resource="http://purl.org/dc/dcmitype/StillImage" />
        <dc:title></dc:title>
      </cc:Work>
    </rdf:RDF>
  </metadata>
  <defs
     id="defs3394" />
  <sodipodi:namedview
     pagecolor="#ffffff"
     bordercolor="#666666"
     borderopacity="1"
     objecttolerance="10000"
     gridtolerance="10000"
     guidetolerance="10"
     inkscape:pageopacity="0"
     inkscape:pageshadow="2"
     inkscape:window-width="1087"
     inkscape:window-height="716"
     id="namedview3392"
     showgrid="true"
     inkscape:zoom="15.219183"
     inkscape:cx="23.050348"
     inkscape:cy="18.743476"
     inkscape:window-x="2246"
     inkscape:window-y="1132"
     inkscape:window-maximized="0"
     inkscape:current-layer="svg3386">
    <inkscape:grid
       type="xygrid"
       id="grid3400" />
  </sodipodi:namedview>
  <path
     d="M32 2H8C5.79 2 4 3.79 4 6v28h4V6h24V2zm6 8H16c-2.21 0-4 1.79-4 4v28c0 2.21 1.79 4 4 4h22c2.21 0 4-1.79 4-4V14c0-2.21-1.79-4-4-4zm0 32H16V14h22v28z"
     id="path3388" />
  <path
     d="M 18.9,27.999999 C 18.9,26.29 20.29,24.9 21.999999,24.9 L 26,24.9 26,23 21.999999,23 C 19.24,23 17,25.24 17,27.999999 17,30.76 19.24,33 21.999999,33 L 26,33 l 0,-1.9 -4.000001,0 C 20.29,31.1 18.9,29.71 18.9,27.999999 Z M 23,29 l 8,0 0,-2 -8,0 0,2 z M 31.999999,23 28,23 l 0,1.9 3.999999,0 C 33.71,24.9 35.1,26.29 35.1,27.999999 35.1,29.71 33.71,31.1 31.999999,31.1 L 28,31.1 28,33 31.999999,33 C 34.76,33 37,30.76 37,27.999999 37,25.24 34.76,23 31.999999,23 Z"
     id="path3390"
     inkscape:connector-curvature="0" />
</svg>
